<?xml version="1.0" encoding="UTF-8"?><svg id="Calque_1" xmlns="http://www.w3.org/2000/svg" viewBox="0 0 240 240"><defs><style>.cls-1{fill:#fff;stroke-width:0px;}</style></defs><path class="cls-1" d="m194.15,120.16c0,31.42,0,62.83,0,94.25,0,10.86-4.88,15.81-15.74,15.82-46.99.03-93.98.03-140.96,0-10.98,0-15.91-5.05-15.91-16.14,0-62.7,0-125.39,0-188.09,0-11.3,4.91-16.23,16.24-16.23,46.71-.02,93.43-.02,140.14,0,11.48,0,16.24,4.77,16.24,16.14,0,31.42,0,62.83,0,94.25Zm-86.56,68.82c1.91,0,3.82,0,5.74,0,14.61,0,29.23.03,43.84-.02,6.11-.02,8.67-2.65,8.75-8.77.04-2.87.08-5.74-.09-8.6-1.13-19-16.5-35.65-35.44-37.89-13.86-1.64-27.82-.7-41.74-.49-4.75.07-9.47,1.23-13.84,3.37-16.73,8.19-25.18,21.51-25.09,40.22.05,10.59,1.54,12.17,11.97,12.17,15.3,0,30.6,0,45.89,0Zm.05-70.18c15.94.09,28.6-12.28,28.63-27.96.03-15.84-12.42-28.47-28.16-28.57-15.76-.09-28.65,12.53-28.69,28.1-.04,15.81,12.39,28.34,28.22,28.42Z"/><path class="cls-1" d="m207.68,98.44c10.11,7.08,13.76,22.74,8.2,33.16-2.04,3.82-5.24,6.18-9.35,7.42-2.4.72-3.71.02-3.75-2.6-.01-.95-.04-1.91-.04-2.86,0-36.83,0-73.67,0-110.5,0-6.09,1.2-6.83,6.56-4.03,1.08.56,2.13,1.25,3.05,2.04,9.23,7.96,7.59,29.38-2.72,35.86-.55.35-1.09.73-2.24,1.5,9.24,3.98,10.62,11.43,10.64,20.01.01,8.48-1.44,15.79-10.35,20Z"/></svg>