<?xml version="1.0" encoding="UTF-8"?><svg id="Calque_1" xmlns="http://www.w3.org/2000/svg" viewBox="0 0 240 240"><defs><style>.cls-1{fill:#fff;stroke-width:0px;}</style></defs><path class="cls-1" d="m75.02,205.06c-.39,0-.72-.02-1.07-.03.24.01.46.04.71.04.12,0,.24,0,.36,0Z"/><path class="cls-1" d="m193.72,184.13c-27.89,4.91-55.79,9.81-83.68,14.73,27.89-4.92,55.79-9.81,83.68-14.73h0Z"/><path class="cls-1" d="m195.06,191.75c-12.73,2.24-25.46,4.48-38.19,6.72-15.16,2.66-30.32,5.33-45.48,8-6.71,1.18-13.41,2.4-20.12,3.61-4.02.73-8.03,1.45-12.05,2.17-1.03.18-2.01.31-2.66.4l-.43.06-.48.07h-.48c-.17.01-.34.01-.51.01-8.44,0-13.68-4.42-15.17-12.79-2.31-12.96-4.62-26.13-6.86-38.87l-1.75-9.97c-3.95-22.51-7.9-45.02-11.85-67.53l-.29-1.63c-2.87.52-5.74,1.03-8.61,1.55-5.62,1.03-7.33,3.62-6.4,9.16.12.69.24,1.39.36,2.08,4.88,27.82,9.76,55.64,14.65,83.46,2.86,16.28,5.7,32.56,8.6,48.82.84,4.73,2.96,6.51,7.93,6.42.52-.08,1.69-.21,2.84-.42,10.73-1.92,21.45-3.89,32.19-5.79,32.78-5.78,65.56-11.52,98.34-17.31,7.58-1.34,9.01-3.54,7.69-11.08-.42-2.39-.84-4.77-1.25-7.16Z"/><path class="cls-1" d="m140.33,45.68c.21-.11.42-.19.63-.25-.21.07-.43.15-.63.25Z"/><path class="cls-1" d="m171.11,35.3c.05-.11.1-.23.15-.34-.05.12-.1.23-.15.34Z"/><path class="cls-1" d="m139.45,46.24c.2-.15.4-.29.59-.41-.2.12-.4.26-.59.41Z"/><path class="cls-1" d="m118.12,62.87c.17.11.34.22.51.3-.18-.08-.34-.19-.51-.3Z"/><path class="cls-1" d="m138.35,47.25c.29-.31.57-.57.84-.81-.28.24-.56.5-.84.81Z"/><path class="cls-1" d="m142.25,45.24c.31,0,.63.05.97.12-.34-.07-.66-.12-.97-.12Z"/><path class="cls-1" d="m143.54,45.44c.4.1.81.23,1.26.42-.45-.18-.86-.31-1.26-.42Z"/><path class="cls-1" d="m141.2,45.34c.29-.07.59-.11.9-.11-.31,0-.61.04-.9.11Z"/><path class="cls-1" d="m118.95,63.29c.16.06.32.12.49.15-.17-.03-.33-.09-.49-.15Z"/><path class="cls-1" d="m122.78,62.61c.11-.07.21-.12.32-.2-.11.08-.21.13-.32.2Z"/><path class="cls-1" d="m117.16,62.07c.23.25.46.46.71.65-.24-.18-.48-.4-.71-.65Z"/><path class="cls-1" d="m132.46,40.64c.08-.08.15-.16.23-.24h0c-.08.08-.15.16-.23.24-3.34,3.23-6.62,6.52-9.89,9.83,3.27-3.3,6.55-6.6,9.89-9.83Z"/><path class="cls-1" d="m127.69,58.06c-1.21,1.18-2.41,2.36-3.62,3.53,0,0,0,0-.01,0,0,0,0,0,.01,0,1.21-1.18,2.41-2.35,3.62-3.53Z"/><path class="cls-1" d="m121.76,63.16c.13-.05.25-.09.38-.15-.13.06-.25.1-.38.15Z"/><path class="cls-1" d="m120.27,63.51c-.16,0-.32-.01-.48-.03.12.01.24.04.36.04.04,0,.08-.01.11-.01Z"/><path class="cls-1" d="m120.8,63.44c.13-.02.26-.04.4-.07-.13.04-.26.05-.4.07Z"/><path class="cls-1" d="m170.29,37s.04-.06.06-.1c-.02.03-.04.06-.06.1Z"/><path class="cls-1" d="m152.89,47.42c-.09,0-.19,0-.28,0,.03,0,.06,0,.09,0,.07,0,.13,0,.2,0Z"/><path class="cls-1" d="m150.51,47.3c.13.01.26.03.4.04-.13-.01-.26-.03-.4-.04Z"/><path class="cls-1" d="m169.22,38.71c.06-.09.12-.18.18-.27-.06.09-.12.18-.18.27Z"/><path class="cls-1" d="m148.72,47.03c.07.01.14.02.2.03-.07-.01-.14-.02-.2-.03Z"/><path class="cls-1" d="m216.07,170.47c-5.32-30.24-10.59-60.49-15.9-90.74-2.49-14.2-4.99-28.4-7.59-42.58-.85-4.63-3.4-6.36-8-5.84-1.16.13-2.32.33-3.48.53-.33.06-.67.12-1,.18-.99,5.67-3.64,10.87-7.73,14.96-5.26,5.27-12.25,8.17-19.67,8.17-3.25,0-6.47-.56-9.59-1.68-4.17,4.41-8.52,8.65-12.73,12.76l-.91.88c-3.49,3.41-6.99,4.13-9.31,4.13-3.29,0-6.39-1.42-8.73-4-4.69-5.18-4.39-12.13.75-17.29,1.28-1.29,2.56-2.58,3.84-3.88,1.09-1.1,2.2-2.22,3.31-3.33-9.53,1.68-19.07,3.37-28.6,5.05-13.62,2.41-27.24,4.81-40.84,7.31-5.62,1.03-7.33,3.62-6.4,9.16.12.69.24,1.39.36,2.08,4.88,27.82,9.76,55.64,14.65,83.46,2.86,16.28,5.7,32.56,8.6,48.82.84,4.73,2.96,6.51,7.93,6.42.52-.08,1.69-.21,2.84-.42,10.73-1.92,21.45-3.89,32.19-5.79,32.78-5.78,65.56-11.52,98.34-17.31,7.58-1.34,9.01-3.54,7.69-11.08ZM75.07,103.92c-.3-3.08,1.48-5.27,5.14-5.92,21.22-3.78,42.44-7.49,63.66-11.24,8.53-1.51,17.06-3.08,25.59-4.59,3.84-.68,6.49.79,7.14,3.85.71,3.37-1.07,5.83-5.14,6.56-29.28,5.23-58.58,10.39-87.87,15.57-.81.14-1.63.17-2.22.23-3.72.11-6.01-1.58-6.3-4.46Zm74.57,39.77c-19.81,3.55-39.65,6.95-59.48,10.4-.34.06-.7.05-1.05.08-3.54.07-5.76-1.56-6.09-4.48-.31-2.68,1.72-5.26,4.96-5.84,19.82-3.55,39.64-7.06,59.48-10.49,3.61-.63,6.22,1.1,6.75,4,.57,3.16-.99,5.69-4.56,6.33Zm26.75-28.45c-9.88,1.93-19.78,3.72-29.69,5.47-19.83,3.5-39.67,6.95-59.5,10.41-4.81.84-7.71-.74-8.01-4.34-.28-3.41,1.56-5.38,5.78-6.12,8.19-1.43,16.39-2.81,24.57-4.26,20.75-3.67,41.49-7.37,62.23-11.05,1.15-.2,2.32-.3,2.75-.35,3.83-.13,5.59,1.49,6.14,4.39.52,2.73-1.15,5.24-4.28,5.85Z"/><path class="cls-1" d="m156.49,47.06c.12-.02.24-.05.36-.07-.12.03-.24.05-.36.07Z"/><path class="cls-1" d="m146.57,46.48c.14.04.28.09.41.13-.14-.04-.28-.08-.41-.13Z"/><path class="cls-1" d="m154.5,47.34c.1,0,.19-.01.29-.02-.1.01-.19.01-.29.02Z"/><path class="cls-1" d="m158.54,46.55s.04-.01.05-.02c-.02,0-.04.01-.05.02Z"/><path class="cls-1" d="m166.88,41.53s-.07.07-.1.1c.03-.03.07-.07.1-.1Z"/><path class="cls-1" d="m167.99,40.32c.07-.08.14-.16.2-.24-.07.08-.14.16-.2.24Z"/><path class="cls-1" d="m165.22,43.01c.09-.07.18-.15.28-.22-.09.08-.18.15-.28.22Z"/><path class="cls-1" d="m160.19,45.96c.11-.04.22-.09.32-.13-.11.05-.21.09-.32.13Z"/><path class="cls-1" d="m162.05,45.1c.09-.05.17-.1.26-.14-.09.05-.17.1-.26.14Z"/><path class="cls-1" d="m163.68,44.13c.05-.04.11-.07.16-.1-.05.04-.11.07-.16.1Z"/><path class="cls-1" d="m172.82,26.93c.02,14.65-14.38,24.47-28.02,18.92-2.81-1.14-4.45-.75-6.46,1.4-4.6,4.93-9.45,9.62-14.27,14.33-2.48,2.42-5.03,2.55-6.92.47-2.12-2.34-1.55-4.58.5-6.64,4.92-4.94,9.79-9.94,14.8-14.78,1.8-1.73,2.32-3.16,1.19-5.64-3.54-7.78-1.8-16.32,4.22-22.46,5.78-5.91,14.7-7.67,22.48-4.44,7.72,3.21,12.47,10.38,12.48,18.84Z"/></svg>