<?xml version="1.0" encoding="UTF-8"?><svg id="Calque_1" xmlns="http://www.w3.org/2000/svg" viewBox="0 0 240 240"><defs><style>.cls-1{fill:#fff;stroke-width:0px;}</style></defs><path class="cls-1" d="m207.42,162.83c0,12.13.02,24.27-.01,36.4-.02,5.9-2.42,8.32-8.34,8.41-4.72.07-9.44-.08-14.16.05-3.15.08-3.7-1.15-2.71-3.94,2.92-8.18,4.55-16.54,4.44-25.32-.4-31.73-26.69-60.8-58.25-64.09-49.81-5.2-86.57,41.08-70.36,88.57,1.61,4.72,1.61,4.73-3.19,4.75-4.72.02-9.44.08-14.16-.03-5.41-.12-7.89-2.63-7.9-8.03-.03-24.54.04-49.08-.09-73.61-.02-3.06,1.53-4.42,3.64-6.1,22.57-17.97,45.04-36.05,67.54-54.1,4.42-3.54,8.87-7.04,13.2-10.68,2.14-1.8,3.89-1.73,6.05,0,26.36,21.22,52.66,42.5,79.25,63.42,4.04,3.18,5.28,6.31,5.14,11.14-.32,11.05-.1,22.11-.1,33.16Z"/><path class="cls-1" d="m234.11,99.3c.07,5.91-2.31,9.91-6.94,12.46-5.09,2.81-10.23,2.48-14.85-.93-5.63-4.16-11.03-8.64-16.5-13.03-23.87-19.14-47.77-38.25-71.54-57.52-3.05-2.47-5.07-2.68-8.26-.1-27.97,22.65-56.09,45.11-84.14,67.65-3.94,3.16-7.92,6.34-13.36,5.66-5.81-.72-10.07-3.76-11.93-9.51-1.88-5.81-.08-11.43,5-15.54,10.27-8.3,20.61-16.53,30.92-24.78,22.31-17.86,44.63-35.69,66.92-53.58,7.34-5.89,13.9-5.95,21.2-.1,32.29,25.88,64.58,51.75,96.91,77.58,4,3.2,6.86,6.85,6.57,11.73Z"/><path class="cls-1" d="m207.41,38.92c0,4.45,0,8.9,0,13.35,0,2.22-.86,2.73-2.64,1.3-7.67-6.16-15.49-12.15-22.93-18.58-3.41-2.95-1.96-7.39-1.24-11.07.65-3.37,3.62-4.96,7-5.08,4.17-.15,8.37-.22,12.53.03,4.84.29,7.19,2.99,7.27,7.91.07,4.04.01,8.09,0,12.13Z"/><path class="cls-1" d="m120.16,125.94c-32.67,0-53.76,26.41-53.94,54.17-.19,29.98,23.92,54.22,53.68,54.26,29.79.04,54.83-24.16,54.59-53.59-.25-30.41-23.46-54.83-54.33-54.84Zm28.52,42.43c-3.1,3.55-6.47,6.85-9.81,10.18-7.63,7.61-15.31,15.17-22.97,22.75-1.59,1.57-3.45,2.56-5.7,2.63-2.15-.17-3.9-1.1-5.38-2.58-4.11-4.09-8.27-8.13-12.29-12.31-3.34-3.47-3.5-7.43-.68-10.48,2.92-3.16,7.03-3.12,10.79.24,1.81,1.61,3.6,3.29,5.13,5.16,2.01,2.44,3.46,2,5.48-.12,7.07-7.41,14.31-14.66,21.5-21.96,1.23-1.25,2.43-2.55,3.79-3.64,3.12-2.49,7.48-2.44,10.02-.02,2.89,2.76,3.1,6.73.11,10.16Z"/></svg>