<?xml version="1.0" encoding="UTF-8"?><svg id="Calque_1" xmlns="http://www.w3.org/2000/svg" viewBox="0 0 240 240"><defs><style>.cls-1{fill:#fff;stroke-width:0px;}</style></defs><path class="cls-1" d="m119.82,218.63c-14.75,0-29.51.02-44.26,0-7.17-.01-10.02-2.73-10.05-9.86-.06-20.9-.2-41.8.03-62.7.23-22.08,14.76-36.2,36.81-36.22,11.75-.01,23.5-.01,35.25,0,21.94.02,36.5,13.89,36.83,35.76.33,21.17.12,42.35.04,63.52-.03,6.67-2.96,9.48-9.57,9.5-15.03.04-30.05.01-45.08.01Z"/><path class="cls-1" d="m120.08,21.29c22.05.04,40.73,18.74,40.56,40.58-.18,22.48-18.64,41.03-40.73,40.91-22.24-.12-40.54-18.67-40.56-41.08-.01-21.91,18.67-40.45,40.73-40.41Z"/><path class="cls-1" d="m54.21,177.8c0,12.69-.04,25.39.04,38.08.01,2-.72,2.74-2.57,2.73-9.69-.05-19.42.41-29.07-.27-10.69-.75-18.09-9.43-18.15-20.17-.07-12.15-.04-24.3-.02-36.45.03-18.95,12.89-32.96,31.88-34.42,5.57-.43,11.19-.11,16.79-.15,1.98-.01,3.33.63,2.61,2.91-2.79,8.81-1.59,17.88-1.78,26.85-.14,6.96-.03,13.93-.03,20.89.1,0,.2,0,.3,0Z"/><path class="cls-1" d="m186.08,177.29c0-10.92-.05-21.85.02-32.77.03-4.67-.27-9.29-1.66-13.76-.75-2.41-.18-3.7,2.55-3.62,7.08.2,14.19-.52,21.25.74,15.53,2.78,27.22,16.51,27.3,32.29.07,12.56.06,25.12,0,37.68-.06,11.67-8.27,20.34-19.88,20.69-8.87.27-17.75.07-26.62.08-1.93,0-3.33-.14-3.3-2.85.14-12.83.06-25.66.06-38.49h.29Z"/><path class="cls-1" d="m19.28,89.08c.08-16.81,13.77-30.33,30.65-30.26,16.61.07,30.2,13.64,30.3,30.26.1,16.58-13.87,30.81-30.34,30.89-16.81.08-30.69-13.92-30.61-30.89Z"/><path class="cls-1" d="m190.47,58.82c16.88.15,30.33,13.77,30.25,30.66-.08,16.73-13.96,30.56-30.6,30.49-16.47-.07-30.44-14.29-30.35-30.88.09-16.78,13.93-30.41,30.71-30.27Z"/></svg>