<?xml version="1.0" encoding="UTF-8"?><svg id="Calque_1" xmlns="http://www.w3.org/2000/svg" viewBox="0 0 240 240"><defs><style>.cls-1{fill:#fff;stroke-width:0px;}</style></defs><path class="cls-1" d="m218.55,159.02c0,14.46.03,28.92,0,43.37-.02,10.1-5.98,16.07-16.05,16.11-8.49.03-16.98.05-25.47,0-9.49-.07-15.44-5.95-15.45-15.42-.04-29.85-.05-59.69,0-89.54.02-9.16,5.78-14.88,14.94-14.95,9.02-.07,18.04-.07,27.06,0,8.98.07,14.9,5.99,14.95,15.06.08,15.12.02,30.24.02,45.36Z"/><path class="cls-1" d="m148.53,176.01c0,9.03.06,18.05-.01,27.08-.07,9.46-6.01,15.35-15.5,15.42-8.76.06-17.52.07-26.28,0-9.2-.08-15.19-6.05-15.22-15.28-.07-18.18-.06-36.37,0-54.55.03-9.19,5.79-14.96,14.89-15.02,9.16-.06,18.32-.07,27.47,0,8.67.07,14.51,5.84,14.62,14.49.11,9.29.02,18.58.03,27.87Z"/><path class="cls-1" d="m179.19,36.23c-6.28,0-11.79,0-17.3,0-2.91,0-5.16-1.2-6.53-3.77-1.36-2.56-1.16-5.15.45-7.55,1.41-2.1,3.44-3.39,6-3.41,11.68-.06,23.36-.14,35.04.02,4.56.06,7.42,3.12,7.46,7.66.1,11.55.1,23.1,0,34.65-.04,4.54-2.92,7.32-7.14,7.42-4.45.1-7.48-2.67-7.63-7.36-.16-4.88-.04-9.77-.04-14.73-1.92-.06-2.53,1.32-3.4,2.17-37.47,37.07-81.82,62.04-132.67,75.62-4.99,1.33-9.16-.49-10.45-4.57-1.4-4.41.83-8.55,6.05-9.94,15.04-4,29.72-9,43.93-15.33,27.39-12.19,52.17-28.4,74.22-48.73,3.94-3.63,8.28-6.92,12.02-12.15Z"/><path class="cls-1" d="m78.46,186.1c0,5.83.07,11.67-.02,17.5-.13,8.83-5.97,14.78-14.74,14.89-9.15.12-18.3.11-27.45,0-8.53-.11-14.69-6.35-14.75-14.97-.09-11.4-.1-22.81,0-34.21.08-8.62,6.21-14.76,14.83-14.86,9.15-.11,18.3-.12,27.45,0,8.74.12,14.57,6.13,14.67,14.94.06,5.57.01,11.14.01,16.71Z"/></svg>