<?xml version="1.0" encoding="UTF-8"?><svg id="Calque_1" xmlns="http://www.w3.org/2000/svg" viewBox="0 0 240 240"><defs><style>.cls-1{fill:#fff;stroke-width:0px;}</style></defs><path class="cls-1" d="m201.44,51.1h-16.71v23.01h16.71c3.24,0,5.9-2.65,5.9-5.9v-11.22c0-3.24-2.65-5.9-5.9-5.9Z"/><path class="cls-1" d="m201.44,108.55h-104.19v23.01h104.19c3.24,0,5.9-2.65,5.9-5.9v-11.22c0-3.24-2.65-5.9-5.9-5.9Z"/><path class="cls-1" d="m201.44,165.89h-60.71v23.01h60.71c3.24,0,5.9-2.65,5.9-5.9v-11.22c0-3.24-2.65-5.9-5.9-5.9Z"/><path class="cls-1" d="m141,51.1H38.56c-3.24,0-5.9,2.65-5.9,5.9v11.22c0,3.24,2.65,5.9,5.9,5.9h102.44v-23.01Z"/><path class="cls-1" d="m168.48,33.3h-11.22c-3.24,0-5.9,2.65-5.9,5.9v11.91h0v23.01h0v11.9c0,3.24,2.65,5.9,5.9,5.9h11.22c3.24,0,5.9-2.65,5.9-5.9v-46.82c0-3.24-2.65-5.9-5.9-5.9Z"/><path class="cls-1" d="m53.71,108.55h-15.14c-3.24,0-5.9,2.65-5.9,5.9v11.22c0,3.24,2.65,5.9,5.9,5.9h15.14v-23.01Z"/><path class="cls-1" d="m81.19,90.74h-11.22c-3.24,0-5.9,2.65-5.9,5.9v11.91h-.02v23.01h.02v11.9c0,3.24,2.65,5.9,5.9,5.9h11.22c3.24,0,5.9-2.65,5.9-5.9v-46.82c0-3.24-2.65-5.9-5.9-5.9Z"/><path class="cls-1" d="m97.37,165.89h-58.8c-3.24,0-5.9,2.65-5.9,5.9v11.22c0,3.24,2.65,5.9,5.9,5.9h58.8v-23.01Z"/><path class="cls-1" d="m124.83,148.09h-11.22c-3.24,0-5.9,2.65-5.9,5.9v11.91h0v23.01h0v11.9c0,3.24,2.65,5.9,5.9,5.9h11.22c3.24,0,5.9-2.65,5.9-5.9v-46.82c0-3.24-2.65-5.9-5.9-5.9Z"/></svg>